<svg width="16" height="16" viewBox="0 0 16 16" fill="none" xmlns="http://www.w3.org/2000/svg">
<path d="M5.6 10.0714C4.92838 9.57671 4.43227 8.88698 4.18195 8.09994C3.93163 7.31291 3.93978 6.46847 4.20527 5.68625C4.47075 4.90402 4.9801 4.22366 5.66116 3.74155C6.34222 3.25943 7.16047 3 8 3C8.83953 3 9.65778 3.25943 10.3388 3.74155C11.0199 4.22366 11.5293 4.90402 11.7947 5.68625C12.0602 6.46847 12.0684 7.31291 11.8181 8.09994C11.5677 8.88698 11.0716 9.57671 10.4 10.0714C10.0877 10.3751 9.85248 10.7467 9.7135 11.1562C9.57452 11.5657 9.53564 12.0016 9.6 12.4286C9.6 12.8453 9.43143 13.245 9.13137 13.5397C8.83131 13.8344 8.42435 14 8 14C7.57565 14 7.16869 13.8344 6.86863 13.5397C6.56857 13.245 6.4 12.8453 6.4 12.4286C6.46436 12.0016 6.42548 11.5657 6.2865 11.1562C6.14752 10.7467 5.91235 10.3751 5.6 10.0714" stroke="#0062A8" stroke-linecap="round" stroke-linejoin="round"/>
<path d="M6.5 11L9.5 11" stroke="#0062A8" stroke-linecap="round" stroke-linejoin="round"/>
</svg>
