<svg width="16" height="16" viewBox="0 0 16 16" fill="none" xmlns="http://www.w3.org/2000/svg">
<path d="M12.5432 8.6241V8.6241C13.0093 9.43128 12.7327 10.4634 11.9255 10.9295L8.98218 12.6288C8.52725 12.8914 7.98662 12.9626 7.47921 12.8267V12.8267C6.9718 12.6907 6.53919 12.3587 6.27653 11.9038L4.09127 8.11881C4.03096 8.01435 4.01461 7.89022 4.04583 7.77371L4.57163 5.81141C4.72766 5.22908 4.77115 4.62233 4.69975 4.02369L4.61756 3.33461C4.56588 2.57665 5.8316 2.47117 6.14976 3.66795L6.80054 5.84991M12.5432 8.6241L11.2644 9.36244M12.5432 8.6241V8.6241C12.8459 8.44933 12.9496 8.06228 12.7749 7.75959L12.623 7.49658C12.4156 7.13734 11.9563 7.01426 11.597 7.22167L10.6946 7.74268" stroke="#0062A8" stroke-linecap="round"/>
<path d="M5.31763 14.4964L5.22916 14.5503L1.62326 8.04306C1.59966 8.00048 1.61524 7.94682 1.65797 7.92349C2.62824 7.39375 3.84409 7.74171 4.3872 8.70456L6.05604 11.6632C6.61393 12.6522 6.2873 13.9055 5.31763 14.4964Z" stroke="#0062A8" stroke-linecap="round" stroke-linejoin="round"/>
<path d="M10.1634 5.97883L10.9399 5.53055C11.3687 5.28298 11.917 5.4299 12.1646 5.85872V5.85872C12.4122 6.28753 12.2652 6.83586 11.8364 7.08344L10.6946 7.74267" stroke="#0062A8"/>
<path d="M6.80058 5.84991L12.327 2.65922C12.7558 2.41165 13.3042 2.55857 13.5517 2.98739V2.98739C13.7993 3.4162 13.6524 3.96453 13.2236 4.21211L10.2548 5.92611" stroke="#0062A8" stroke-linecap="round"/>
</svg>
