<svg width="352" height="40" viewBox="0 0 352 40" fill="none" xmlns="http://www.w3.org/2000/svg">
<path d="M346.479 6.05469H344.001L344.497 6.89087H295.004H265.104H193.111L189.94 13.2458H261.932H291.799H344.497L344.001 14.1155H346.479L351.303 10.0684L346.479 6.05469Z" fill="#231F20"/>
<path d="M271.216 15.1855L263.947 29.6013H273.793L281.029 15.1855H271.216Z" fill="#231F20"/>
<path d="M188.949 15.1855L181.713 29.6013H191.261L195.424 21.3398H207.847L210.92 15.1855H188.949Z" fill="#231F20"/>
<path d="M222.087 15.0522C219.113 15.0522 216.371 16.7581 215.016 19.4338L209.829 29.769H216.04L221.426 19.0659H230.71L230.016 20.4372H222.351L220.335 24.4509H228.001L225.324 29.769H231.536L238.937 15.0522H222.087Z" fill="#231F20"/>
<path d="M236.954 25.9216L234.906 29.9687H254.002C257.472 29.9687 260.28 27.1257 260.28 23.6137C260.28 21.8745 258.892 20.4697 257.174 20.4697H246.106L246.932 18.8642H261.634L263.65 14.8506H248.155C245.082 14.8506 241.613 16.4895 239.73 20.5032C238.838 22.2424 240.093 24.3496 242.042 24.3496H253.738L252.912 25.955H236.954V25.9216Z" fill="#231F20"/>
<path d="M298.672 24.3169L300.621 20.4704H291.436C288.462 20.4704 285.72 22.1762 284.366 24.852L283.804 25.9892C282.912 27.7954 284.2 29.9025 286.183 29.9025H303.991L309.806 18.3298C310.599 16.7578 309.475 14.8848 307.724 14.8848H290.214L288.132 19.0657H303.099L302.405 20.4704L299.762 25.7216H290.247L290.907 24.3169H298.672Z" fill="#231F20"/>
<path d="M334.056 14.7515H319.684C317.273 14.7515 315.059 16.1228 313.969 18.2969L310.07 26.0566C309.277 27.6286 310.4 29.5017 312.152 29.5017H323.88L321.733 33.7495H238.243L239.267 32.5119H237.252L233.32 35.7897L237.252 39.0676H239.267L238.243 37.83H321.601C324.376 37.83 326.92 36.258 328.176 33.7495L336.039 18.0627C336.832 16.5576 335.741 14.7515 334.056 14.7515ZM325.929 25.3877H316.678L320.081 18.5979H329.332L325.929 25.3877Z" fill="#231F20"/>
<path d="M264.641 6.42236L261.436 12.7439H291.337L294.509 6.42236H264.641Z" fill="#37AC49"/>
<path d="M192.649 6.42236L189.444 12.7439H261.436L264.641 6.42236H192.649Z" fill="#E88824"/>
<path d="M345.984 5.55273H343.506L344.034 6.42236H294.509L291.337 12.7439H344.034L343.506 13.6135H345.984L350.807 9.59984L345.984 5.55273Z" fill="#E88824"/>
<path d="M301.612 10.0686H295.896C295.698 10.0686 295.566 9.8678 295.665 9.66702L295.797 9.36585C295.896 9.19853 296.061 9.09814 296.26 9.09814H301.975C302.173 9.09814 302.306 9.29892 302.207 9.49971L302.074 9.80088C301.975 9.96819 301.81 10.0686 301.612 10.0686Z" fill="#ECC81B"/>
<path d="M314.563 10.0686H308.848C308.649 10.0686 308.517 9.8678 308.616 9.66702L308.748 9.36585C308.848 9.19853 309.013 9.09814 309.211 9.09814H314.927C315.125 9.09814 315.257 9.29892 315.158 9.49971L315.026 9.80088C314.927 9.96819 314.762 10.0686 314.563 10.0686Z" fill="#ECC81B"/>
<path d="M327.515 10.0686H321.799C321.601 10.0686 321.469 9.8678 321.568 9.66702L321.7 9.36585C321.799 9.19853 321.964 9.09814 322.162 9.09814H327.845C328.043 9.09814 328.175 9.29892 328.076 9.49971L327.944 9.80088C327.878 9.96819 327.68 10.0686 327.515 10.0686Z" fill="#ECC81B"/>
<path d="M340.433 10.0686H334.717C334.519 10.0686 334.387 9.8678 334.486 9.66702L334.618 9.36585C334.717 9.19853 334.882 9.09814 335.081 9.09814H340.797C340.995 9.09814 341.127 9.29892 341.028 9.49971L340.896 9.80088C340.797 9.96819 340.631 10.0686 340.433 10.0686Z" fill="#ECC81B"/>
<path d="M275.412 11.7075L275.478 12.3433C275.907 12.176 277.493 11.7075 278.385 12.5441L279.244 11.9417C279.013 11.6071 277.857 10.4694 275.412 11.7075Z" fill="white"/>
<path d="M275.214 9.9348L275.313 10.7714C278.947 8.89743 280.401 10.8048 280.599 11.106L281.656 10.4033C280.764 8.42894 276.965 8.73011 275.214 9.9348Z" fill="white"/>
<path d="M275.016 8.09454L275.115 8.89727C279.707 6.85699 282.02 7.86041 283.011 9.43243L284.101 8.69659C282.152 5.5191 277.394 6.58942 275.016 8.09454Z" fill="white"/>
<path d="M274.751 5.55188L274.884 6.75598C279.278 4.01331 284.3 4.54847 285.852 7.49181L287.273 6.52185C285.555 3.17713 280.104 2.4413 274.751 5.55188Z" fill="#E88824"/>
<path d="M274.388 2.37513L274.586 4.04749C280.401 0.903459 286.678 1.23793 288.991 5.41883L291.072 4.01405C289.288 -0.969583 279.344 -1.06992 274.388 2.37513Z" fill="#E88824"/>
<path d="M280.533 14.7173H270.72L263.485 29.0996H273.297L280.533 14.7173Z" fill="#37AC49"/>
<path d="M210.457 14.7173H188.486L181.217 29.0996H190.799L194.928 20.8381H207.351L210.457 14.7173Z" fill="#E88824"/>
<path d="M221.591 14.5503C218.617 14.5503 215.875 16.2561 214.521 18.9319L209.333 29.267H215.545L220.93 18.564H230.247L229.553 19.9353H221.888L219.873 23.9489H227.538L224.862 29.267H231.04L238.441 14.5503H221.591Z" fill="#E88824"/>
<path d="M261.139 18.3628L263.155 14.3491H247.659C244.587 14.3491 241.117 15.988 239.234 20.0017C238.342 21.7409 239.598 23.8481 241.547 23.8481H253.243L252.417 25.4536H236.459L234.41 29.5007H253.507C256.976 29.5007 259.785 26.6577 259.785 23.1457C259.785 21.4065 258.397 20.0017 256.679 20.0017H245.611L246.437 18.3962H261.139V18.3628Z" fill="#E88824"/>
<path d="M307.229 14.4165H289.718L287.636 18.564H302.603L301.876 19.9687L299.233 25.22H289.718L290.379 23.8152H298.176L300.125 19.9687H290.94C287.967 19.9687 285.225 21.6745 283.87 24.3503L283.308 25.4875C282.416 27.2937 283.705 29.4009 285.687 29.4009H303.495L309.31 17.8281C310.103 16.2895 308.98 14.4165 307.229 14.4165Z" fill="#37AC49"/>
<path d="M333.561 14.249H319.189C316.777 14.249 314.563 15.6204 313.473 17.7944L309.574 25.5542C308.781 27.1262 309.905 28.9992 311.656 28.9992H323.385L321.237 33.247H237.747L238.771 32.0095H236.756L232.824 35.2873L236.756 38.5651H238.771L237.747 37.3276H321.105C323.88 37.3276 326.424 35.7556 327.68 33.247L335.576 17.5603C336.336 16.0552 335.246 14.249 333.561 14.249ZM325.466 24.8852H316.215L319.618 18.0954H328.869L325.466 24.8852Z" fill="#37AC49"/>
<path d="M257.042 35.6556H252.978C252.846 35.6556 252.747 35.4883 252.813 35.3879L252.912 35.1871C252.978 35.0533 253.11 34.9863 253.243 34.9863H257.306C257.439 34.9863 257.538 35.1536 257.472 35.254L257.373 35.4548C257.306 35.5552 257.174 35.6556 257.042 35.6556Z" fill="#ECC81B"/>
<path d="M276.7 35.6556H272.637C272.504 35.6556 272.405 35.4883 272.471 35.3879L272.571 35.1871C272.637 35.0533 272.769 34.9863 272.901 34.9863H276.965C277.097 34.9863 277.196 35.1536 277.13 35.254L277.031 35.4548C276.932 35.5552 276.833 35.6556 276.7 35.6556Z" fill="#ECC81B"/>
<path d="M296.326 35.6556H292.262C292.13 35.6556 292.031 35.4883 292.097 35.3879L292.196 35.1871C292.262 35.0533 292.394 34.9863 292.526 34.9863H296.59C296.722 34.9863 296.821 35.1536 296.755 35.254L296.656 35.4548C296.59 35.5552 296.458 35.6556 296.326 35.6556Z" fill="#ECC81B"/>
<path d="M315.951 35.6556H311.887C311.755 35.6556 311.656 35.4883 311.722 35.3879L311.821 35.1871C311.887 35.0533 312.019 34.9863 312.152 34.9863H316.215C316.347 34.9863 316.447 35.1536 316.38 35.254L316.281 35.4548C316.215 35.5552 316.083 35.6556 315.951 35.6556Z" fill="#ECC81B"/>
<path d="M177.55 36.8589L179.235 33.5811H182.142L182.01 33.8486H179.499L178.905 35.0193H181.184L181.052 35.2869H178.772L178.112 36.5913H180.689L180.556 36.8589H177.55Z" fill="#231F20"/>
<path d="M183.761 35.4876C183.827 35.4876 183.926 35.4876 184.025 35.4541C184.125 35.4541 184.224 35.4207 184.29 35.4207C184.356 35.3872 184.422 35.3538 184.455 35.3203C184.488 35.2869 184.521 35.22 184.554 35.1865C184.62 35.0527 184.62 34.9189 184.554 34.8521C184.488 34.7517 184.29 34.7183 184.025 34.7183C183.893 34.7183 183.794 34.7183 183.662 34.7517C183.563 34.7517 183.431 34.7852 183.332 34.8521C183.232 34.9189 183.133 34.9524 183.067 35.0193C182.968 35.0862 182.902 35.1865 182.836 35.2869H182.473C182.572 35.1531 182.671 35.0193 182.77 34.9189C182.902 34.8186 183.034 34.7517 183.166 34.6848C183.299 34.6179 183.464 34.5845 183.629 34.551C183.794 34.5176 183.959 34.5176 184.125 34.5176C184.29 34.5176 184.422 34.5176 184.554 34.551C184.686 34.5845 184.785 34.6179 184.851 34.6848C184.918 34.7517 184.984 34.8186 184.984 34.9189C184.984 35.0193 184.951 35.1196 184.884 35.2534L184.224 36.5244C184.158 36.6248 184.158 36.6917 184.191 36.7251C184.224 36.7586 184.323 36.7586 184.521 36.6917L184.422 36.8923C184.389 36.8923 184.356 36.8923 184.29 36.9258C184.224 36.9258 184.158 36.9592 184.125 36.9592C184.058 36.9592 184.025 36.9592 183.959 36.9592C183.893 36.9592 183.86 36.9258 183.827 36.9258C183.794 36.8923 183.794 36.8923 183.794 36.8589C183.794 36.8254 183.794 36.792 183.794 36.7586C183.794 36.7251 183.827 36.6917 183.827 36.6248C183.596 36.7586 183.365 36.8589 183.133 36.9258C182.902 36.9927 182.671 37.0261 182.44 37.0261C182.307 37.0261 182.175 37.0261 182.076 36.9927C181.977 36.9592 181.878 36.9258 181.812 36.8589C181.746 36.792 181.713 36.7251 181.68 36.6582C181.68 36.5913 181.68 36.491 181.746 36.3572C181.944 35.9558 182.44 35.7217 183.199 35.6548L183.761 35.4876ZM184.323 35.6213C184.158 35.6548 183.959 35.6882 183.794 35.7217C183.629 35.7217 183.464 35.7551 183.299 35.7551C183.001 35.7551 182.77 35.822 182.572 35.8889C182.373 35.9558 182.241 36.0896 182.142 36.2568C182.109 36.3237 182.109 36.3906 182.109 36.4575C182.109 36.5244 182.142 36.5579 182.208 36.5913C182.241 36.6248 182.307 36.6582 182.373 36.6582C182.44 36.6582 182.539 36.6917 182.605 36.6917C182.737 36.6917 182.902 36.6917 183.067 36.6582C183.232 36.6248 183.365 36.5913 183.497 36.5244C183.629 36.4575 183.761 36.3906 183.86 36.3237C183.959 36.2234 184.058 36.1231 184.125 36.0227L184.323 35.6213Z" fill="#231F20"/>
<path d="M186.471 36.124C186.437 36.3247 186.471 36.4585 186.57 36.5588C186.669 36.6257 186.867 36.6926 187.131 36.6926C187.263 36.6926 187.396 36.6926 187.495 36.6592C187.594 36.6257 187.693 36.5923 187.792 36.5588C187.891 36.5254 187.957 36.4585 187.99 36.425C188.056 36.3581 188.089 36.3247 188.122 36.2578C188.189 36.1575 188.189 36.0571 188.089 35.9902C188.023 35.9233 187.924 35.8899 187.792 35.8564C187.66 35.823 187.495 35.7895 187.33 35.7895C187.164 35.7561 187.032 35.7226 186.9 35.6892C186.768 35.6558 186.669 35.5889 186.636 35.4885C186.57 35.3882 186.603 35.2878 186.669 35.1206C186.768 34.9199 186.933 34.7527 187.197 34.6523C187.462 34.5186 187.759 34.4517 188.122 34.4517C188.453 34.4517 188.717 34.5186 188.882 34.6189C189.048 34.7192 189.081 34.9199 188.981 35.1875H188.618C188.684 35.0203 188.651 34.8865 188.519 34.8196C188.42 34.7527 188.222 34.7192 187.99 34.7192C187.759 34.7192 187.561 34.7527 187.396 34.8196C187.23 34.8865 187.131 34.9868 187.065 35.1206C186.999 35.2209 187.032 35.3213 187.098 35.3547C187.164 35.4216 187.263 35.4551 187.396 35.4885C187.528 35.522 187.66 35.5554 187.825 35.5889C187.99 35.6223 188.122 35.6558 188.255 35.6892C188.387 35.7226 188.486 35.823 188.519 35.8899C188.585 35.9902 188.552 36.0906 188.486 36.2578C188.42 36.3581 188.354 36.4585 188.222 36.5588C188.122 36.6592 187.99 36.7261 187.858 36.7595C187.726 36.8264 187.561 36.8599 187.396 36.8933C187.23 36.9267 187.032 36.9267 186.867 36.9267C186.669 36.9267 186.537 36.8933 186.404 36.8599C186.272 36.8264 186.173 36.7595 186.107 36.6926C186.041 36.6257 186.008 36.5254 186.008 36.425C186.008 36.3247 186.008 36.2244 186.074 36.124H186.471Z" fill="#231F20"/>
<path d="M189.444 37.4944C189.477 37.4944 189.543 37.4944 189.576 37.5278C189.609 37.5278 189.675 37.5278 189.741 37.5278C189.84 37.5278 189.94 37.4944 190.039 37.4609C190.138 37.4275 190.204 37.3606 190.303 37.2937C190.369 37.2268 190.468 37.1599 190.534 37.093C190.6 37.0261 190.666 36.9592 190.732 36.8923L190.699 34.5176H191.096V36.5244L193.144 34.5176H193.541L191.195 36.8254C191.063 36.9592 190.898 37.093 190.765 37.2268C190.633 37.3606 190.501 37.4609 190.402 37.5278C190.27 37.5947 190.171 37.6616 190.072 37.7285C189.973 37.762 189.84 37.7954 189.708 37.7954C189.642 37.7954 189.576 37.7954 189.543 37.7954C189.477 37.7954 189.444 37.7954 189.378 37.762L189.444 37.4944Z" fill="#231F20"/>
<path d="M197.373 36.8589C197.34 36.8589 197.274 36.8589 197.175 36.8923C197.109 36.8923 197.01 36.9258 196.911 36.9258C196.713 36.9258 196.613 36.8923 196.547 36.8254C196.481 36.7586 196.514 36.6248 196.58 36.4575L197.439 34.7517H196.977L197.076 34.5176H197.538L197.869 33.8486H198.232L197.902 34.5176H198.496L198.397 34.7517H197.803L196.977 36.3572C196.944 36.4241 196.911 36.4575 196.911 36.491C196.878 36.5244 196.878 36.5579 196.878 36.5913C196.878 36.6248 196.911 36.6248 196.944 36.6582C196.977 36.6582 197.043 36.6917 197.109 36.6917C197.142 36.6917 197.208 36.6917 197.274 36.6917C197.34 36.6917 197.373 36.6917 197.439 36.6582L197.373 36.8589Z" fill="#231F20"/>
<path d="M200.545 36.9267C200.347 36.9267 200.149 36.8933 200.017 36.8599C199.851 36.793 199.752 36.7261 199.653 36.6257C199.587 36.5254 199.521 36.3916 199.521 36.2244C199.521 36.0571 199.587 35.8899 199.686 35.6892C199.785 35.522 199.884 35.3547 200.017 35.2209C200.149 35.0872 200.314 34.9534 200.479 34.8196C200.644 34.7192 200.843 34.6189 201.074 34.552C201.305 34.4851 201.536 34.4517 201.768 34.4517C202.032 34.4517 202.23 34.4851 202.362 34.552C202.528 34.6189 202.627 34.7192 202.693 34.8196C202.759 34.9199 202.792 35.0537 202.759 35.2209C202.726 35.3882 202.693 35.522 202.594 35.7227C202.494 35.9233 202.362 36.0906 202.23 36.2244C202.098 36.3916 201.933 36.4919 201.735 36.6257C201.536 36.7261 201.338 36.8264 201.14 36.8933C200.975 36.8933 200.776 36.9267 200.545 36.9267ZM202.263 35.6892C202.329 35.5554 202.395 35.4216 202.395 35.2878C202.428 35.154 202.395 35.0537 202.362 34.9868C202.329 34.8865 202.263 34.8196 202.131 34.7861C202.032 34.7192 201.867 34.7192 201.668 34.7192C201.47 34.7192 201.305 34.7527 201.14 34.7861C200.975 34.853 200.843 34.9199 200.71 35.0203C200.578 35.1206 200.446 35.2209 200.347 35.3547C200.248 35.4885 200.149 35.5889 200.083 35.7227C200.017 35.8564 199.95 35.9902 199.95 36.124C199.95 36.2578 199.95 36.3581 199.983 36.425C200.017 36.5254 200.116 36.5923 200.215 36.6257C200.314 36.6592 200.479 36.6926 200.644 36.6926C200.843 36.6926 201.008 36.6592 201.173 36.6257C201.338 36.5588 201.503 36.4919 201.635 36.3916C201.768 36.2913 201.9 36.1909 201.999 36.0906C202.098 35.9233 202.197 35.823 202.263 35.6892Z" fill="#231F20"/>
<path d="M210.49 34.5178C210.556 34.2502 210.49 34.0496 210.325 33.9158C210.159 33.782 209.862 33.7485 209.499 33.7485C209.234 33.7485 208.97 33.782 208.739 33.8823C208.507 33.9492 208.309 34.083 208.111 34.1833C207.913 34.3171 207.748 34.4844 207.615 34.6516C207.483 34.8188 207.351 35.0195 207.252 35.1868C207.153 35.354 207.087 35.5547 207.054 35.7219C207.021 35.8892 207.021 36.0564 207.054 36.1902C207.087 36.324 207.219 36.4243 207.351 36.5246C207.516 36.625 207.748 36.6584 208.045 36.6584C208.243 36.6584 208.408 36.625 208.607 36.5915C208.772 36.5581 208.937 36.4912 209.102 36.3909C209.267 36.324 209.4 36.2236 209.532 36.1233C209.664 36.0229 209.796 35.8892 209.895 35.7554H210.325C210.192 35.9226 210.06 36.0564 209.895 36.1902C209.73 36.324 209.532 36.4578 209.333 36.5581C209.135 36.6584 208.904 36.7588 208.64 36.8257C208.375 36.8926 208.111 36.926 207.814 36.926C207.483 36.926 207.219 36.8926 207.021 36.7922C206.822 36.6919 206.69 36.5915 206.624 36.4243C206.558 36.2571 206.525 36.0898 206.558 35.8892C206.591 35.6885 206.657 35.4543 206.789 35.2202C206.955 34.9192 207.12 34.6516 207.351 34.4175C207.549 34.1833 207.814 34.0161 208.045 33.8823C208.309 33.7485 208.574 33.6482 208.838 33.5813C209.102 33.5144 209.4 33.481 209.697 33.481C209.928 33.481 210.126 33.5144 210.292 33.5479C210.457 33.5813 210.589 33.6482 210.721 33.7485C210.82 33.8489 210.886 33.9492 210.919 34.083C210.952 34.2168 210.952 34.3506 210.886 34.5178H210.49Z" fill="#231F20"/>
<path d="M211.547 36.8599H211.415L212.373 34.5186H212.736L212.505 34.9534C212.703 34.7527 212.901 34.6189 213.1 34.552C213.298 34.4851 213.529 34.4517 213.793 34.4517L213.628 34.7527C213.43 34.7527 213.232 34.7861 213.067 34.8196C212.901 34.8865 212.769 34.9534 212.637 35.0203C212.505 35.1206 212.406 35.2209 212.307 35.3213C212.208 35.4551 212.142 35.5554 212.076 35.6892L211.547 36.8599Z" fill="#231F20"/>
<path d="M217.626 34.5176H217.99L216.8 36.8589H216.437L216.602 36.5244C216.536 36.5579 216.47 36.6248 216.371 36.6582C216.272 36.6916 216.206 36.7585 216.106 36.792C216.007 36.8254 215.908 36.8589 215.776 36.8923C215.644 36.9258 215.512 36.9258 215.38 36.9258C215.181 36.9258 215.016 36.8923 214.884 36.8589C214.752 36.8254 214.686 36.7585 214.62 36.6916C214.587 36.6248 214.554 36.5244 214.554 36.4241C214.554 36.3237 214.62 36.1899 214.653 36.0896L215.446 34.551H215.809L215.016 36.0896C214.917 36.2903 214.884 36.4575 214.983 36.5579C215.049 36.6582 215.247 36.7251 215.512 36.7251C215.677 36.7251 215.809 36.6916 215.941 36.6582C216.073 36.6248 216.206 36.5579 216.338 36.4575C216.47 36.3906 216.569 36.2903 216.668 36.1899C216.767 36.0896 216.866 35.9558 216.932 35.822L217.626 34.5176Z" fill="#231F20"/>
<path d="M220.302 33.9824L220.5 33.5811H220.897L220.698 33.9824H220.302ZM218.849 36.8589L220.038 34.5176H220.401L219.212 36.8589H218.849Z" fill="#231F20"/>
<path d="M221.36 36.124C221.327 36.3247 221.327 36.4585 221.459 36.5588C221.558 36.6257 221.756 36.6926 222.021 36.6926C222.153 36.6926 222.285 36.6926 222.384 36.6592C222.483 36.6257 222.582 36.5923 222.681 36.5588C222.78 36.5254 222.847 36.4585 222.88 36.425C222.946 36.3581 222.979 36.3247 223.012 36.2578C223.078 36.1575 223.078 36.0571 222.979 35.9902C222.913 35.9233 222.814 35.8899 222.681 35.8564C222.549 35.823 222.384 35.7895 222.219 35.7895C222.054 35.7561 221.921 35.7226 221.789 35.6892C221.657 35.6558 221.558 35.5889 221.525 35.4885C221.459 35.3882 221.492 35.2878 221.558 35.1206C221.657 34.9199 221.822 34.7527 222.087 34.6523C222.351 34.5186 222.648 34.4517 223.012 34.4517C223.342 34.4517 223.606 34.5186 223.772 34.6189C223.937 34.7192 223.97 34.9199 223.871 35.1875H223.507C223.573 35.0203 223.54 34.8865 223.408 34.8196C223.309 34.7527 223.111 34.7192 222.88 34.7192C222.648 34.7192 222.45 34.7527 222.285 34.8196C222.12 34.8865 222.021 34.9868 221.954 35.1206C221.888 35.2209 221.921 35.3213 221.988 35.3547C222.054 35.4216 222.153 35.4551 222.285 35.4885C222.417 35.522 222.549 35.5554 222.714 35.5889C222.88 35.6223 223.012 35.6558 223.144 35.6892C223.276 35.7226 223.375 35.823 223.408 35.8899C223.474 35.9902 223.441 36.0906 223.375 36.2578C223.309 36.3581 223.243 36.4585 223.111 36.5588C223.012 36.6592 222.88 36.7261 222.747 36.7595C222.615 36.8264 222.45 36.8599 222.285 36.8933C222.12 36.9267 221.921 36.9267 221.756 36.9267C221.558 36.9267 221.426 36.8933 221.294 36.8599C221.162 36.8264 221.062 36.7595 220.996 36.6926C220.93 36.6257 220.897 36.5254 220.897 36.425C220.897 36.3247 220.897 36.2244 220.963 36.124H221.36Z" fill="#231F20"/>
<path d="M225.49 35.7549C225.424 35.8887 225.391 35.989 225.391 36.1228C225.391 36.2231 225.391 36.3235 225.424 36.4238C225.457 36.4907 225.556 36.5576 225.655 36.6245C225.754 36.658 225.919 36.6914 226.084 36.6914C226.316 36.6914 226.547 36.658 226.778 36.5576C227.009 36.4573 227.175 36.3235 227.34 36.1562H227.736C227.637 36.2566 227.538 36.3569 227.406 36.4573C227.274 36.5576 227.142 36.6245 227.009 36.6914C226.877 36.7583 226.712 36.8252 226.547 36.8586C226.382 36.8921 226.183 36.9255 225.985 36.9255C225.721 36.9255 225.523 36.8921 225.391 36.8252C225.225 36.7583 225.126 36.6914 225.06 36.5576C224.994 36.4573 224.961 36.3235 224.994 36.1562C225.027 36.0225 225.06 35.8552 225.159 35.688C225.258 35.5207 225.357 35.3535 225.523 35.1863C225.655 35.019 225.82 34.9187 226.018 34.7849C226.217 34.6511 226.382 34.5842 226.613 34.5173C226.811 34.4504 227.043 34.417 227.274 34.417C227.703 34.417 228.001 34.5173 228.133 34.7515C228.265 34.9856 228.232 35.2866 228.001 35.7214H225.49V35.7549ZM227.67 35.5207C227.736 35.4204 227.769 35.2866 227.769 35.1863C227.769 35.0859 227.769 34.9856 227.703 34.9187C227.67 34.8518 227.571 34.7849 227.472 34.7515C227.373 34.718 227.241 34.6846 227.076 34.6846C226.91 34.6846 226.745 34.718 226.613 34.7515C226.481 34.7849 226.316 34.8518 226.217 34.9187C226.084 34.9856 225.985 35.0859 225.886 35.1863C225.787 35.2866 225.688 35.387 225.622 35.5207H227.67Z" fill="#231F20"/>
<path d="M34.5255 4.91748H30.0652L26.0014 19.8015L8.02804 4.95093L1.78363 27.7619H6.24392L10.3077 12.9448L28.2811 27.7954L34.5255 4.91748Z" fill="#6E6F71"/>
<path d="M134.47 4.8833L140.086 16.2219L128.258 27.5605L134.47 4.8833Z" fill="#018C45"/>
<path d="M130.505 4.8833L136.155 16.2219L124.294 27.5605L130.505 4.8833Z" fill="#F47920"/>
<path d="M120.362 25.4206C120.196 26.0561 119.833 26.5913 119.271 27.0261C118.71 27.4609 118.115 27.6616 117.487 27.6616H95.0867C94.459 27.6616 93.9964 27.4609 93.6991 27.0261C93.4017 26.5913 93.3357 26.0561 93.5009 25.4206L98.4898 7.22534C98.655 6.58984 99.0184 6.05468 99.58 5.58642C100.142 5.15161 100.703 4.91748 101.331 4.91748H123.732C124.392 4.91748 124.855 5.15161 125.152 5.58642C125.45 6.02124 125.516 6.55639 125.351 7.22534L124.756 9.36596H102.355L98.5558 23.2465H120.956L120.362 25.4206Z" fill="#6E6F71"/>
<path d="M68.391 4.91748L67.1686 9.33251H78.501L73.4791 27.6616H77.9724L82.9613 9.33251H93.9964L95.1858 4.91748H68.391Z" fill="#6E6F71"/>
<path d="M62.5101 4.91748H40.1096C39.9774 4.91748 39.8783 4.91748 39.7461 4.95093C39.2506 5.01782 38.788 5.21851 38.3585 5.58642C37.7968 6.02124 37.4664 6.55639 37.2682 7.22534L32.2793 25.4206C32.1141 26.0561 32.1802 26.5913 32.4775 27.0261C32.7749 27.4609 33.2705 27.6616 33.8652 27.6616H36.1118H54.0851H56.2657C56.8935 27.6616 57.4882 27.4609 58.0498 27.0261C58.6115 26.5913 58.9749 26.0561 59.1401 25.4206L59.7348 23.2465H55.3076H37.3673L38.6559 18.5639H56.5961L57.8186 14.1155H39.8783L41.1668 9.36596H59.1071H63.5343L64.129 7.22534C64.2942 6.55639 64.2282 6.02124 63.9308 5.58642C63.6335 5.11816 63.1709 4.91748 62.5101 4.91748Z" fill="#6E6F71"/>
<path d="M0 34.4167L1.12332 30.3027L3.10564 33.2461L3.8325 30.5703H4.42719L3.27084 34.6509L1.32155 31.741L0.561659 34.4167H0Z" fill="#6E6F71"/>
<path d="M7.69814 33.4809H6.07921L5.38538 34.4175H4.75763L7.79726 30.3369L8.49108 34.4509H7.86333L7.69814 33.4809ZM7.63206 32.9458L7.43382 31.6414L6.47568 32.9458H7.63206Z" fill="#6E6F71"/>
<path d="M11.6293 31.1064L10.7045 34.4177H10.1099L11.0348 31.1064H10.176L10.3081 30.5713H12.6532L12.4881 31.1064H11.6293Z" fill="#6E6F71"/>
<path d="M14.6358 30.5713L13.5788 34.4177H12.9843L14.0743 30.5713H14.6358Z" fill="#6E6F71"/>
<path d="M15.7597 32.4778C15.9249 31.9426 16.2223 31.4744 16.7509 31.073C17.2465 30.6716 17.7751 30.5044 18.3368 30.5044C18.8654 30.5044 19.2949 30.7051 19.5592 31.1064C19.8566 31.5078 19.9226 31.9761 19.7574 32.5112C19.5922 33.0798 19.2619 33.5481 18.7663 33.916C18.2707 34.3173 17.7421 34.4846 17.1804 34.4846C16.6848 34.4846 16.2883 34.3173 15.991 33.9494C15.6606 33.615 15.5945 33.1133 15.7597 32.4778ZM16.3214 32.4778C16.1892 32.9126 16.2553 33.247 16.4535 33.5146C16.6518 33.7822 16.9491 33.916 17.3126 33.916C17.709 33.916 18.0724 33.7822 18.4359 33.5146C18.7993 33.247 19.0306 32.8791 19.1297 32.4778C19.2288 32.0764 19.1958 31.7085 18.9975 31.4409C18.7993 31.1733 18.502 31.0061 18.1055 31.0061C17.709 31.0061 17.3456 31.1399 16.9822 31.4409C16.6848 31.7419 16.4535 32.0764 16.3214 32.4778Z" fill="#6E6F71"/>
<path d="M20.8146 34.4167L21.971 30.3027L23.9203 33.2461L24.6802 30.5703H25.2418L24.1185 34.6509L22.1692 31.741L21.4093 34.4167H20.8146Z" fill="#6E6F71"/>
<path d="M28.546 33.4809H26.927L26.2332 34.4175H25.6055L28.6121 30.3369L29.3059 34.4509H28.6781L28.546 33.4809ZM28.4469 32.9458L28.2486 31.6414L27.2905 32.9458H28.4469Z" fill="#6E6F71"/>
<path d="M32.3448 30.5713L31.4199 33.8826H32.543L32.3778 34.4177H30.6932L31.7502 30.5713H32.3448Z" fill="#6E6F71"/>
<path d="M39.3496 31.1064H37.7967L37.5654 32.043H39.0522L38.887 32.5781H37.4002L37.0368 33.8826H38.5897L38.4245 34.4177H36.3099L37.3672 30.5713H39.4817L39.3496 31.1064Z" fill="#6E6F71"/>
<path d="M41.7279 30.5713L40.8031 33.8826H41.9261L41.794 34.4177H40.0764L41.1664 30.5713H41.7279Z" fill="#6E6F71"/>
<path d="M46.2548 31.1064H44.735L44.4707 32.043H45.9575L45.7923 32.5781H44.3055L43.9751 33.8826H45.4949L45.3297 34.4177H43.2482L44.3055 30.5713H46.42L46.2548 31.1064Z" fill="#6E6F71"/>
<path d="M50.8474 30.7721L50.6491 31.4745C50.3848 31.2069 50.0875 31.0397 49.724 31.0397C49.3276 31.0397 48.9641 31.1735 48.6007 31.4745C48.2373 31.7421 48.006 32.11 47.9069 32.5114C47.8078 32.9127 47.8408 33.2472 48.039 33.5482C48.2373 33.8158 48.5346 33.9496 48.9311 33.9496C49.1293 33.9496 49.3276 33.9162 49.4597 33.8493C49.5588 33.8158 49.658 33.7824 49.724 33.7155C49.8232 33.6486 49.9223 33.5817 50.0544 33.5148L49.8562 34.2172C49.4597 34.4179 49.0963 34.5182 48.7329 34.5182C48.2042 34.5182 47.7747 34.3175 47.5104 33.9496C47.2461 33.5482 47.18 33.08 47.3122 32.5448C47.4443 32.0431 47.7417 31.6083 48.1712 31.2404C48.6998 30.7721 49.2615 30.538 49.8892 30.538C50.2527 30.5046 50.5831 30.5714 50.8474 30.7721Z" fill="#6E6F71"/>
<path d="M53.4241 31.1064L52.4992 34.4177H51.9377L52.8625 31.1064H51.9707L52.1359 30.5713H54.448L54.3159 31.1064H53.4241Z" fill="#6E6F71"/>
<path d="M56.5631 32.7788L57.2899 34.4177H56.5961L55.9353 32.8457H55.8362L55.4067 34.4177H54.812L55.8692 30.5713H56.53C57.0256 30.5713 57.356 30.6716 57.5542 30.8723C57.7525 31.073 57.7855 31.374 57.6864 31.7085C57.6203 31.9761 57.4551 32.2102 57.2569 32.4109C57.0586 32.6116 56.8274 32.7454 56.5631 32.7788ZM55.9683 32.344H56.1335C56.6952 32.344 57.0256 32.1433 57.1247 31.7085C57.2238 31.3071 57.0256 31.1064 56.497 31.1064H56.2987L55.9683 32.344Z" fill="#6E6F71"/>
<path d="M59.041 32.4778C59.2062 31.9426 59.5036 31.4744 59.9992 31.073C60.4947 30.6716 61.0234 30.5044 61.585 30.5044C62.1137 30.5044 62.5432 30.7051 62.8075 31.1064C63.1049 31.5078 63.1379 31.9761 63.0058 32.5112C62.8406 33.0798 62.5102 33.5481 62.0146 33.916C61.519 34.3173 60.9903 34.4846 60.4287 34.4846C59.9331 34.4846 59.5366 34.3173 59.2392 33.9494C58.9419 33.615 58.8428 33.1133 59.041 32.4778ZM59.6027 32.4778C59.4705 32.9126 59.5366 33.247 59.7348 33.5146C59.9331 33.7822 60.2304 33.916 60.5939 33.916C60.9903 33.916 61.3538 33.7822 61.7172 33.5146C62.0806 33.247 62.3119 32.8791 62.411 32.4778C62.5102 32.0764 62.4771 31.7085 62.2789 31.4409C62.0806 31.1733 61.7833 31.0061 61.3868 31.0061C60.9903 31.0061 60.6269 31.1399 60.2635 31.4409C59.9661 31.7419 59.7018 32.0764 59.6027 32.4778Z" fill="#6E6F71"/>
<path d="M64.0961 34.4167L65.2524 30.3027L67.2018 33.2461L67.9617 30.5703H68.5233L67.4 34.6509L65.4176 31.741L64.6908 34.4167H64.0961Z" fill="#6E6F71"/>
<path d="M70.9348 30.5713L69.8778 34.4177H69.2833L70.3402 30.5713H70.9348Z" fill="#6E6F71"/>
<path d="M75.5275 30.7721L75.3293 31.4745C75.065 31.2069 74.7676 31.0397 74.4042 31.0397C74.0077 31.0397 73.6443 31.1735 73.2809 31.4745C72.9174 31.7421 72.6862 32.11 72.587 32.5114C72.4879 32.9127 72.521 33.2472 72.7192 33.5482C72.9174 33.8158 73.2148 33.9496 73.6113 33.9496C73.8095 33.9496 74.0077 33.9162 74.1399 33.8493C74.239 33.8158 74.3381 33.7824 74.4372 33.7155C74.5364 33.6486 74.6355 33.5817 74.7676 33.5148L74.5694 34.2172C74.206 34.4179 73.8095 34.5182 73.4461 34.5182C72.9174 34.5182 72.4879 34.3175 72.2236 33.9496C71.9593 33.5482 71.8932 33.08 72.0254 32.5448C72.1575 32.0431 72.4549 31.6083 72.8844 31.2404C73.413 30.7721 73.9747 30.538 74.6024 30.538C74.9328 30.5046 75.2632 30.5714 75.5275 30.7721Z" fill="#6E6F71"/>
<path d="M80.582 31.1064L79.6572 34.4177H79.0956L79.9875 31.1064H79.1287L79.2938 30.5713H81.606L81.4408 31.1064H80.582Z" fill="#6E6F71"/>
<path d="M82.2016 32.4778C82.3668 31.9426 82.6642 31.4744 83.1928 31.073C83.6884 30.6716 84.217 30.5044 84.7787 30.5044C85.3073 30.5044 85.7368 30.7051 86.0011 31.1064C86.2984 31.5078 86.3645 31.9761 86.1993 32.5112C86.0341 33.0798 85.7037 33.5481 85.2082 33.916C84.7126 34.3173 84.184 34.4846 83.6223 34.4846C83.1267 34.4846 82.7302 34.3173 82.4329 33.9494C82.1025 33.615 82.0364 33.1133 82.2016 32.4778ZM82.7633 32.4778C82.6311 32.9126 82.6972 33.247 82.8954 33.5146C83.0937 33.7822 83.391 33.916 83.7544 33.916C84.1509 33.916 84.5474 33.7822 84.8778 33.5146C85.2412 33.247 85.4725 32.8791 85.5716 32.4778C85.6707 32.0764 85.6377 31.7085 85.4394 31.4409C85.2412 31.1733 84.9438 31.0061 84.5474 31.0061C84.1509 31.0061 83.7875 31.1399 83.4241 31.4409C83.1267 31.7419 82.8624 32.0764 82.7633 32.4778Z" fill="#6E6F71"/>
<path d="M88.908 30.5713L87.9831 33.8826H89.1062L88.9741 34.4177H87.2565L88.3465 30.5713H88.908Z" fill="#6E6F71"/>
<path d="M92.0798 30.5713L91.155 33.8826H92.278L92.1128 34.4177H90.4283L91.4853 30.5713H92.0798Z" fill="#6E6F71"/>
<path d="M99.8776 30.7721L99.6793 31.4745C99.415 31.2069 99.1177 31.0397 98.7542 31.0397C98.3578 31.0397 97.9944 31.1735 97.6309 31.4745C97.3005 31.7421 97.0362 32.11 96.9371 32.5114C96.838 32.9127 96.871 33.2472 97.0693 33.5482C97.2675 33.8158 97.5649 33.9496 97.9613 33.9496C98.1596 33.9496 98.3578 33.9162 98.4899 33.8493C98.5891 33.8158 98.6551 33.7824 98.7873 33.7155C98.8864 33.6486 98.9855 33.5817 99.1177 33.5148L98.9194 34.2172C98.556 34.4179 98.1596 34.5182 97.7961 34.5182C97.2345 34.5182 96.838 34.3175 96.5737 33.9496C96.3094 33.5482 96.2433 33.08 96.3755 32.5448C96.5076 32.0431 96.805 31.6083 97.2345 31.2404C97.7631 30.7721 98.3247 30.538 98.9525 30.538C99.2829 30.5046 99.6133 30.5714 99.8776 30.7721Z" fill="#6E6F71"/>
<path d="M100.836 32.4778C101.001 31.9426 101.298 31.4744 101.827 31.073C102.323 30.6716 102.851 30.5044 103.413 30.5044C103.941 30.5044 104.371 30.7051 104.635 31.1064C104.9 31.5078 104.966 31.9761 104.834 32.5112C104.701 33.0798 104.371 33.5481 103.842 33.916C103.347 34.3173 102.818 34.4846 102.256 34.4846C101.761 34.4846 101.364 34.3173 101.067 33.9494C100.737 33.615 100.637 33.1133 100.836 32.4778ZM101.397 32.4778C101.265 32.9126 101.331 33.247 101.53 33.5146C101.728 33.7822 102.025 33.916 102.389 33.916C102.785 33.916 103.148 33.7822 103.512 33.5146C103.875 33.247 104.107 32.8791 104.206 32.4778C104.305 32.0764 104.272 31.7085 104.074 31.4409C103.875 31.1733 103.578 31.0061 103.182 31.0061C102.785 31.0061 102.422 31.1399 102.058 31.4409C101.728 31.7419 101.497 32.0764 101.397 32.4778Z" fill="#6E6F71"/>
<path d="M107.542 30.5713L106.617 33.8826H107.74L107.608 34.4177H105.891L106.981 30.5713H107.542Z" fill="#6E6F71"/>
<path d="M110.681 30.5713L109.789 33.8826H110.912L110.747 34.4177H109.062L110.119 30.5713H110.681Z" fill="#6E6F71"/>
<path d="M115.208 31.1064H113.688L113.424 32.043H114.91L114.778 32.5781H113.291L112.928 33.8826H114.448L114.316 34.4177H112.201L113.258 30.5713H115.373L115.208 31.1064Z" fill="#6E6F71"/>
<path d="M119.8 30.7721L119.602 31.4745C119.338 31.2069 119.04 31.0397 118.677 31.0397C118.28 31.0397 117.917 31.1735 117.553 31.4745C117.19 31.7421 116.992 32.11 116.86 32.5114C116.76 32.9127 116.794 33.2472 116.992 33.5482C117.19 33.8158 117.487 33.9496 117.884 33.9496C118.082 33.9496 118.28 33.9162 118.445 33.8493C118.545 33.8158 118.611 33.7824 118.71 33.7155C118.809 33.6486 118.908 33.5817 119.04 33.5148L118.842 34.2172C118.479 34.4179 118.082 34.5182 117.719 34.5182C117.157 34.5182 116.76 34.3175 116.496 33.9496C116.232 33.5482 116.166 33.08 116.298 32.5448C116.43 32.0431 116.727 31.6083 117.124 31.2404C117.653 30.7721 118.214 30.538 118.842 30.538C119.238 30.5046 119.536 30.5714 119.8 30.7721Z" fill="#6E6F71"/>
<path d="M122.377 31.1064L121.485 34.4177H120.89L121.815 31.1064H120.956L121.089 30.5713H123.434L123.269 31.1064H122.377Z" fill="#6E6F71"/>
<path d="M125.416 30.5713L124.36 34.4177H123.765L124.855 30.5713H125.416Z" fill="#6E6F71"/>
<path d="M126.54 32.4778C126.705 31.9426 127.002 31.4744 127.531 31.073C128.027 30.6716 128.555 30.5044 129.117 30.5044C129.646 30.5044 130.075 30.7051 130.339 31.1064C130.637 31.5078 130.703 31.9761 130.538 32.5112C130.372 33.0798 130.042 33.5481 129.547 33.916C129.051 34.3173 128.522 34.4846 127.961 34.4846C127.465 34.4846 127.069 34.3173 126.771 33.9494C126.441 33.615 126.342 33.1133 126.54 32.4778ZM127.102 32.4778C126.969 32.9126 127.036 33.247 127.234 33.5146C127.432 33.7822 127.729 33.916 128.093 33.916C128.489 33.916 128.886 33.7822 129.216 33.5146C129.58 33.247 129.811 32.8791 129.91 32.4778C130.009 32.0764 129.976 31.7085 129.778 31.4409C129.58 31.1733 129.282 31.0061 128.886 31.0061C128.489 31.0061 128.126 31.1399 127.762 31.4409C127.432 31.7419 127.201 32.0764 127.102 32.4778Z" fill="#6E6F71"/>
<path d="M131.595 34.4167L132.751 30.3027L134.701 33.2461L135.461 30.5703H136.022L134.899 34.6509L132.917 31.741L132.19 34.4167H131.595Z" fill="#6E6F71"/>
<path d="M160.222 4.8833V34.7182" stroke="#6E6F71" stroke-width="3" stroke-miterlimit="10" stroke-linecap="round"/>
</svg>
